<svg xmlns="http://www.w3.org/2000/svg" width="1400" height="440" viewBox="0 0 1400 440" role="img" aria-labelledby="title desc"><title id="title">Nexus Delivery Lab — Every package. A considered plan.</title><desc id="desc">Original dark green artwork with a warehouse, delivery stops and a feasible route.</desc><defs><pattern id="grid" width="44" height="44" patternUnits="userSpaceOnUse"><path d="M44 0H0V44" fill="none" stroke="#dce5d0" stroke-width="1"/></pattern><clipPath id="right"><rect x="830" width="570" height="440"/></clipPath></defs><rect width="1400" height="440" rx="18" fill="#132e25"/><path d="M830 0H1382Q1400 0 1400 18V422Q1400 440 1382 440H830Z" fill="#eef3e6"/><g font-family="Segoe UI,Arial,sans-serif"><rect x="54" y="48" width="43" height="47" rx="10" fill="#bfdfbd"/><text x="64" y="82" fill="#173e2b" font-size="32" font-weight="700">N</text><text x="110" y="77" fill="#fff" font-size="29" font-weight="650" letter-spacing="-1">nexus</text><text x="110" y="94" fill="#99b39e" font-size="8" letter-spacing="3">DELIVERY LAB</text><text x="56" y="148" fill="#aec7ad" font-size="11" letter-spacing="3">LAST-MILE DELIVERY OPTIMIZATION</text><text x="52" y="212" fill="#f7faef" font-size="53" font-weight="600" letter-spacing="-2">Every package.</text><text x="52" y="276" fill="#c9e0b8" font-size="53" font-weight="600" letter-spacing="-2">A considered plan.</text><text x="56" y="319" fill="#a9c1ac" font-size="16">Graph algorithms, greedy choices and deadline-aware DP.</text><g fill="#9cb49e" font-size="10" letter-spacing="1.5"><text x="57" y="393">REPEATABLE DATA</text><text x="250" y="393">FEASIBLE SCHEDULES</text><text x="478" y="393">MEASURED RESULTS</text></g><g fill="#c9e0b8"><circle cx="55" cy="365" r="3"/><circle cx="249" cy="365" r="3"/><circle cx="477" cy="365" r="3"/></g><g clip-path="url(#right)"><rect x="830" width="570" height="440" fill="url(#grid)"/><path d="M800 369C970 330 940 414 1070 370S1160 268 1270 312S1330 270 1420 225" fill="none" stroke="#dee8cf" stroke-width="34"/><g fill="none" stroke="#becbb5" stroke-width="2"><path d="M934 238L1020 108L1197 143L1300 279L1130 354L934 238L1197 143L1130 354L1020 108"/><path d="M934 238L1053 257L1197 143M1053 257L1130 354L1350 116L1197 143"/></g><path d="M934 238L1020 108L1197 143L1300 279L1130 354L934 238" fill="none" stroke="#287c57" stroke-width="4"/><g fill="#287c57" stroke="#fff" stroke-width="4"><circle cx="1020" cy="108" r="19"/><circle cx="1197" cy="143" r="19"/><circle cx="1300" cy="279" r="19"/><circle cx="1130" cy="354" r="19"/></g><g fill="#bdc8b1" stroke="#fff" stroke-width="3"><circle cx="1053" cy="257" r="12"/><circle cx="1350" cy="116" r="12"/></g><rect x="907" y="211" width="54" height="54" rx="12" fill="#173e2b" stroke="#fff" stroke-width="4"/><g fill="#fff" text-anchor="middle" font-size="13" font-weight="600"><text x="1020" y="113">1</text><text x="1197" y="148">2</text><text x="1300" y="284">3</text><text x="1130" y="359">4</text><text x="934" y="246" font-size="21">W</text></g><g fill="#617653" font-size="10" text-anchor="middle"><text x="1020" y="77">DEADLINE CHECKED</text><text x="1197" y="182">ON TIME</text><text x="934" y="290">WAREHOUSE</text><text x="1130" y="394">CAPACITY RESPECTED</text></g><rect x="882" y="38" width="153" height="29" rx="5" fill="#fff" stroke="#d6e1ca"/><circle cx="895" cy="52" r="3" fill="#6a9c60"/><text x="908" y="56" fill="#59714f" font-size="8" letter-spacing="1.2">FEASIBLE ROUTE / DEMO</text></g></g></svg>
